<svg width="32" height="29" viewBox="0 0 32 29" fill="none" xmlns="http://www.w3.org/2000/svg">
<path fill-rule="evenodd" clip-rule="evenodd" d="M22.732 6.78837C22.732 10.5375 19.6928 13.5767 15.9437 13.5767C12.1946 13.5767 9.15529 10.5375 9.15529 6.78837C9.15529 3.03926 12.1946 0 15.9437 0C19.6928 0 22.732 3.03926 22.732 6.78837ZM20.4692 6.78837C20.4692 9.28778 18.4431 11.314 15.9437 11.314C13.4443 11.314 11.4181 9.28778 11.4181 6.78837C11.4181 4.28896 13.4443 2.26279 15.9437 2.26279C18.4431 2.26279 20.4692 4.28896 20.4692 6.78837Z" fill="#4F378A"/>
<path d="M15.9437 16.9709C8.61858 16.9709 2.37742 21.3024 0 27.3708C0.579156 27.9459 1.18925 28.4898 1.82757 29C3.59792 23.4286 9.15158 19.2337 15.9437 19.2337C22.7358 19.2337 28.2894 23.4286 30.0598 29C30.6981 28.4899 31.3082 27.9459 31.8873 27.3708C29.5099 21.3024 23.2688 16.9709 15.9437 16.9709Z" fill="#4F378A"/>
</svg>
